<svg width="24" height="24" viewBox="0 0 24 24" xmlns="http://www.w3.org/2000/svg">
  <!-- 通知：钟形一笔成形，铃舌悬垂 -->
  <path d="M12 3.8 C8.3 3.8 6.6 6.7 6.6 10.6 C6.6 13.6 5.1 15.1 4.7 16.3 H19.3 C18.9 15 17.4 13.6 17.4 10.6 C17.4 6.6 15.7 3.8 12 3.8 Z" fill="none" stroke="#FFFFFF" stroke-opacity="0.58" stroke-width="1.8" stroke-linecap="round" stroke-linejoin="round"/>
  <path d="M10.4 18.9 C10.7 19.9 11.3 20.5 12 20.5 C12.8 20.5 13.4 19.9 13.7 18.9" fill="none" stroke="#FFFFFF" stroke-opacity="0.55" stroke-width="1.7" stroke-linecap="round"/>
  <path d="M8.1 6.1 C8.8 5.5 9.6 5.1 10.4 4.9" fill="none" stroke="#FFFFFF" stroke-opacity="0.26" stroke-width="2.6" stroke-linecap="round"/>
  <g data-ink-texture="flywhite" fill="#FFFFFF" fill-opacity="0.3">
    <circle cx="12.6" cy="3.1" r="0.42"/>
    <ellipse cx="19.9" cy="17.2" rx="0.72" ry="0.3" transform="rotate(20 19.9 17.2)"/>
  </g>
  <path data-ink-texture="dry-brush" d="M6.3 16.9 C8.6 16.6 10.7 16.6 12.4 16.8 M13.6 16.9 C14.8 16.9 15.9 16.8 16.8 16.7" fill="none" stroke="#FFFFFF" stroke-opacity="0.15" stroke-width="0.66" stroke-linecap="round"/>
</svg>
