<svg width="24" height="24" viewBox="0 0 24 24" xmlns="http://www.w3.org/2000/svg">
  <!-- 图片：实心墨框，天/地两片镂空夹出山峦，日为镂空中的实心岛（evenodd） -->
  <path fill-rule="evenodd" fill="#FFFFFF" fill-opacity="0.88" d="M6.0 4.6 C10.4 4.2 14.0 4.8 18.0 4.4 C19.2 4.3 19.9 5.1 20.0 6.2 C20.3 10.6 19.7 14.4 20.1 17.9 C20.2 19.1 19.4 19.9 18.2 19.8 C13.7 20.1 9.9 19.5 6.0 19.9 C4.8 20.0 4.0 19.2 4.0 18.1 C3.7 13.8 4.3 10.0 3.9 6.1 C3.8 5.0 4.9 4.7 6.0 4.6 Z M6.2 7.1 C10.0 6.7 13.9 7.2 17.8 6.9 L17.8 15.5 L14.8 11.3 L12.3 13.3 L9.4 10.2 L6.2 15.3 Z M6.2 16.6 L9.6 11.1 L12.4 14.9 L15.0 12.3 L17.8 16.9 L17.8 17.5 C13.9 17.8 10.1 17.3 6.2 17.6 Z M14.4 8.0 C14.0 8.8 14.2 9.7 15.0 10.0 C15.8 10.3 16.6 9.7 16.6 8.9 C16.6 8.1 16.0 7.5 15.3 7.6 C14.9 7.6 14.6 7.7 14.4 8.0 Z"/>
</svg>
