<svg width="24" height="24" viewBox="0 0 24 24" xmlns="http://www.w3.org/2000/svg">
  <path d="M4 20 L13.5 10.5" fill="none" stroke="#57534A" stroke-opacity="0.55" stroke-width="2.4" stroke-linecap="round"/>
  <path d="M16.5 3 L17.6 6.1 L21 7.2 L17.6 8.3 L16.5 11.4 L15.4 8.3 L12 7.2 L15.4 6.1 Z" fill="#57534A" fill-opacity="0.55"/>
  <path d="M19 13 L19.6 14.9 L21.5 15.5 L19.6 16.1 L19 18 L18.4 16.1 L16.5 15.5 L18.4 14.9 Z" fill="#57534A" fill-opacity="0.55"/>
  <g data-ink-texture="flywhite" fill="#57534A" fill-opacity="0.32">
    <ellipse cx="3.1" cy="20.4" rx="1.15" ry="0.42" transform="rotate(-12 3.1 20.4)"/>
    <circle cx="20.2" cy="4.1" r="0.48"/>
    <circle cx="21.4" cy="5.2" r="0.23" fill-opacity="0.18"/>
  </g>
  <path data-ink-texture="dry-brush" d="M3.8 21.1 C6.7 20.4 9.1 20.4 11.2 20.75 M12.8 20.9 C14.4 20.9 15.9 20.65 17.1 20.5" fill="none" stroke="#57534A" stroke-opacity="0.16" stroke-width="0.72" stroke-linecap="round"/>
</svg>
