<?xml version="1.0" standalone="no"?>
<svg version="1.0" xmlns="http://www.w3.org/2000/svg"
 width="24" height="24" viewBox="0 0 100.000000 100.000000"
 preserveAspectRatio="xMidYMid meet">
<metadata>
Created by potrace 1.16, written by Peter Selinger 2001-2019
</metadata>
<g transform="translate(0.000000,100.000000) scale(0.100000,-0.100000)"
fill="#FFFFFF" stroke="none">
<path d="M351 894 c-14 -6 -40 -23 -57 -37 -18 -15 -36 -27 -41 -27 -17 0 -43
-36 -43 -58 0 -12 -4 -22 -9 -22 -10 0 -27 -41 -37 -90 -4 -19 -9 -29 -11 -22
-3 6 -9 10 -14 6 -11 -7 -11 -82 1 -109 7 -17 9 -14 10 15 l2 35 9 -38 c21
-88 99 -196 167 -229 67 -33 183 -41 242 -18 55 22 80 10 80 -38 0 -17 6 -32
14 -35 15 -6 86 -110 86 -127 0 -26 76 -40 98 -18 26 26 13 69 -34 122 -26 28
-53 65 -62 83 -8 18 -25 34 -39 37 -29 8 -29 33 0 65 35 38 64 117 72 192 7
63 5 69 -31 139 -51 96 -120 166 -109 110 3 -18 0 -17 -50 7 -30 15 -52 30
-49 34 2 4 -5 10 -16 14 -11 3 -20 10 -20 15 0 12 -127 7 -159 -6z m178 -55
c28 -6 61 -19 73 -30 22 -19 21 -19 -19 1 -23 11 -54 20 -67 20 -23 0 -25 -3
-16 -24 9 -24 -8 -53 -23 -41 -4 3 -5 2 -2 -2 3 -3 -3 -11 -12 -18 -19 -14 -9
-37 13 -28 13 5 13 7 2 14 -8 5 -9 9 -2 9 6 0 17 -6 23 -14 10 -11 8 -16 -8
-21 -34 -10 -24 -24 13 -20 26 4 35 0 40 -13 3 -9 9 -23 12 -29 3 -7 0 -13 -7
-13 -7 0 -25 -15 -41 -32 -22 -25 -31 -29 -37 -19 -6 10 -10 9 -15 -5 -4 -10
-1 -21 6 -26 10 -6 10 -10 -1 -17 -15 -10 -12 -10 76 -12 24 -1 41 -4 39 -8
-3 -4 -1 -13 4 -21 7 -12 12 -11 30 5 l21 19 -6 -27 c-17 -65 58 -8 77 59 6
21 13 33 16 25 2 -7 -11 -43 -29 -79 -27 -53 -44 -72 -83 -97 -84 -51 -198
-39 -281 30 -13 11 -7 10 18 -4 51 -28 57 -27 46 11 -12 44 3 56 37 29 28 -22
54 -28 54 -11 0 6 -7 10 -15 10 -16 0 -21 16 -6 22 5 2 1 14 -10 27 -18 22
-21 23 -36 8 -15 -14 -18 -13 -45 15 -27 30 -29 30 -54 13 -14 -9 -27 -15 -28
-13 -2 2 -8 12 -14 23 l-11 20 -1 -20 c0 -11 11 -39 25 -63 13 -23 19 -40 14
-36 -20 12 -59 109 -59 147 0 100 45 179 128 222 52 27 87 30 161 14z m76 -59
c3 -5 1 -10 -4 -10 -6 0 -11 5 -11 10 0 6 2 10 4 10 3 0 8 -4 11 -10z m123
-57 c0 -21 -2 -23 -10 -9 -5 9 -6 21 -3 26 10 16 13 12 13 -17z m-30 -28 c-3
-3 -9 2 -12 12 -6 14 -5 15 5 6 7 -7 10 -15 7 -18z m72 -111 c0 -16 -4 -22
-14 -18 -8 3 -16 0 -19 -8 -2 -7 -3 -4 -1 7 2 11 4 31 4 44 0 20 2 21 15 11 8
-7 15 -23 15 -36z m-381 -221 c2 -2 0 -3 -5 -3 -5 0 -22 12 -39 26 l-30 26 35
-23 c19 -12 37 -24 39 -26z m-52 6 c18 -18 5 -41 -18 -29 -10 6 -16 17 -13 25
7 18 16 19 31 4z m473 -190 c15 -28 5 -23 -15 7 -9 15 -12 23 -6 20 6 -4 16
-16 21 -27z m25 -39 c3 -5 1 -10 -4 -10 -6 0 -11 5 -11 10 0 6 2 10 4 10 3 0
8 -4 11 -10z"/>
<path d="M865 370 c4 -6 11 -8 16 -5 14 9 11 15 -7 15 -8 0 -12 -5 -9 -10z"/>
<path d="M255 263 c-11 -2 -28 -15 -38 -28 -17 -24 -17 -25 12 -57 l29 -32 37
19 c48 26 49 28 27 67 -19 33 -31 39 -67 31z"/>
<path d="M132 249 c2 -7 10 -15 17 -17 8 -3 12 1 9 9 -2 7 -10 15 -17 17 -8 3
-12 -1 -9 -9z"/>
<path d="M362 140 c0 -14 2 -19 5 -12 2 6 2 18 0 25 -3 6 -5 1 -5 -13z"/>
</g>
</svg>
